<?xml version="1.0" encoding="UTF-8"?>
<svg id="Layer_1" xmlns="http://www.w3.org/2000/svg" version="1.1" viewBox="0 0 370 264">
  <!-- Generator: Adobe Illustrator 30.2.1, SVG Export Plug-In . SVG Version: 2.1.1 Build 1)  -->
  <defs>
    <style>
      .st0 {
        fill: #444;
      }

      .st1 {
        fill: #fff;
      }
    </style>
  </defs>
  <g id="abrasives-icon">
    <circle id="disc" class="st0" cx="175.53" cy="106.41" r="46.5"/>
    <g id="holes">
      <circle id="hole-1" class="st1" cx="176" cy="67.71" r="2.5"/>
      <circle id="hole-2" class="st1" cx="203.83" cy="79" r="2.5"/>
      <circle id="hole-3" class="st1" cx="147.91" cy="79.09" r="2.5"/>
      <circle id="hole-4" class="st1" cx="175.62" cy="80.39" r="2"/>
      <circle id="hole-5" class="st1" cx="188.91" cy="83.91" r="2.5"/>
      <circle id="hole-6" class="st1" cx="162.61" cy="83.96" r="2.5"/>
      <circle id="hole-7" class="st1" cx="149.38" cy="93.39" r="2"/>
      <circle id="hole-8" class="st1" cx="175.62" cy="93.39" r="2"/>
      <circle id="hole-9" class="st1" cx="202.5" cy="93.71" r="2"/>
      <circle id="hole-10" class="st1" cx="162.38" cy="106.39" r="2"/>
      <circle id="hole-11" class="st1" cx="148.96" cy="106.4" r="2.5"/>
      <path id="hole-12" class="st1" d="M175.53,101.61h0c1.55,0,2.8,1.25,2.8,2.8v4c0,1.55-1.25,2.8-2.8,2.8h0c-1.55,0-2.8-1.25-2.8-2.8v-4c0-1.55,1.25-2.8,2.8-2.8Z"/>
      <circle id="hole-13" class="st1" cx="135.83" cy="106.43" r="2.5"/>
      <circle id="hole-14" class="st1" cx="189.15" cy="106.54" r="2"/>
      <circle id="hole-15" class="st1" cx="202.29" cy="107" r="2.5"/>
      <circle id="hole-16" class="st1" cx="215.62" cy="107.24" r="2.5"/>
      <circle id="hole-17" class="st1" cx="148.62" cy="119.39" r="2"/>
      <circle id="hole-18" class="st1" cx="175.5" cy="119.71" r="2"/>
      <circle id="hole-19" class="st1" cx="202.38" cy="120.39" r="2"/>
      <circle id="hole-20" class="st1" cx="162" cy="129.17" r="2.5"/>
      <circle id="hole-21" class="st1" cx="189" cy="129.83" r="2.5"/>
      <circle id="hole-22" class="st1" cx="175.5" cy="133.29" r="2"/>
      <circle id="hole-23" class="st1" cx="146.92" cy="134.08" r="2.5"/>
      <circle id="hole-24" class="st1" cx="203.91" cy="135.91" r="2.5"/>
      <circle id="hole-25" class="st1" cx="175.28" cy="146.88" r="2.5"/>
    </g>
  </g>
</svg>