<?xml version="1.0" encoding="UTF-8" standalone="no"?>
<svg xmlns="http://www.w3.org/2000/svg" xmlns:xlink="http://www.w3.org/1999/xlink" width="1254" height="1254" viewBox="0 0 1254 1254">
  <title>Editable gravity-feed spray gun line illustration</title>
  <desc>Vectorized from the supplied reference image. Each connected black component is a separate editable compound path.</desc>
  <g id="spray-gun" fill="#000000" fill-rule="evenodd" stroke="none">
    <path id="main-linework-001" d="M 762 107 L 737 104 L 699 107 L 667 113 L 606 130 L 567 145 L 524 166 L 497 184 L 482 201 L 480 209 L 481 217 L 500 274 L 509 281 L 526 282 L 528 284 L 589 466 L 595 473 L 605 479 L 687 499 L 699 532 L 706 537 L 713 536 L 719 550 L 644 530 L 636 532 L 629 538 L 616 559 L 604 557 L 596 560 L 592 558 L 586 549 L 561 542 L 553 542 L 545 550 L 537 577 L 536 591 L 543 599 L 569 606 L 575 606 L 582 600 L 586 601 L 591 609 L 586 618 L 521 611 L 516 614 L 513 620 L 492 618 L 489 612 L 480 606 L 446 603 L 437 610 L 429 660 L 429 669 L 432 675 L 439 680 L 471 684 L 479 682 L 484 676 L 504 678 L 506 680 L 503 692 L 466 688 L 461 690 L 456 697 L 455 703 L 459 712 L 476 724 L 488 737 L 492 746 L 493 761 L 382 1046 L 383 1056 L 391 1067 L 384 1084 L 385 1095 L 378 1110 L 375 1131 L 380 1138 L 404 1147 L 412 1147 L 418 1143 L 428 1125 L 430 1114 L 439 1105 L 445 1087 L 456 1085 L 466 1077 L 484 1034 L 519 1044 L 533 1044 L 543 1038 L 544 1029 L 540 1021 L 539 1010 L 542 1000 L 556 983 L 556 955 L 562 944 L 573 933 L 573 911 L 578 897 L 585 890 L 593 887 L 626 889 L 634 883 L 634 874 L 630 869 L 589 854 L 588 851 L 612 777 L 620 771 L 631 768 L 635 764 L 639 753 L 661 756 L 661 815 L 667 840 L 675 854 L 683 862 L 696 870 L 713 875 L 731 876 L 737 874 L 742 869 L 743 860 L 716 836 L 708 820 L 706 808 L 710 774 L 727 704 L 736 706 L 741 723 L 750 731 L 823 736 L 827 743 L 834 748 L 864 750 L 874 749 L 886 739 L 889 725 L 892 721 L 923 717 L 929 711 L 930 701 L 928 696 L 916 689 L 915 685 L 917 672 L 930 666 L 932 663 L 932 649 L 926 644 L 898 637 L 896 635 L 896 624 L 892 615 L 881 607 L 845 604 L 840 606 L 835 612 L 817 611 L 804 579 L 793 572 L 777 520 L 777 516 L 785 510 L 787 505 L 777 469 L 831 403 L 834 395 L 834 382 L 777 201 L 791 189 L 794 183 L 794 176 L 776 119 L 768 110 Z M 386 1118 L 387 1117 L 392 1120 L 394 1120 L 397 1122 L 399 1122 L 400 1123 L 402 1123 L 405 1125 L 408 1125 L 409 1126 L 411 1126 L 412 1127 L 414 1127 L 415 1128 L 415 1129 L 412 1134 L 412 1136 L 410 1138 L 407 1139 L 406 1138 L 403 1138 L 402 1137 L 400 1137 L 399 1136 L 397 1136 L 396 1135 L 394 1135 L 391 1133 L 389 1133 L 388 1132 L 385 1131 L 384 1130 L 383 1127 L 384 1126 L 384 1124 L 385 1123 L 385 1121 L 386 1120 Z M 392 1100 L 394 1098 L 395 1098 L 396 1099 L 397 1099 L 398 1100 L 400 1100 L 405 1103 L 407 1103 L 408 1104 L 410 1104 L 411 1105 L 413 1105 L 414 1106 L 416 1106 L 417 1107 L 419 1107 L 420 1108 L 422 1108 L 423 1109 L 423 1110 L 421 1113 L 421 1115 L 420 1116 L 420 1119 L 419 1120 L 419 1121 L 417 1123 L 414 1123 L 413 1122 L 411 1122 L 410 1121 L 408 1121 L 407 1120 L 405 1120 L 404 1119 L 402 1119 L 399 1117 L 397 1117 L 396 1116 L 395 1116 L 394 1115 L 393 1115 L 392 1114 L 389 1113 L 387 1111 L 389 1109 L 389 1108 L 390 1107 L 390 1105 L 392 1102 Z M 395 1079 L 396 1078 L 397 1078 L 398 1079 L 399 1079 L 404 1082 L 406 1082 L 407 1083 L 408 1083 L 411 1085 L 413 1085 L 416 1087 L 418 1087 L 419 1088 L 421 1088 L 422 1089 L 424 1089 L 425 1090 L 427 1090 L 428 1091 L 430 1091 L 431 1092 L 433 1092 L 434 1093 L 433 1094 L 433 1096 L 432 1097 L 432 1099 L 431 1100 L 431 1101 L 429 1103 L 427 1103 L 426 1104 L 422 1104 L 421 1103 L 418 1103 L 417 1102 L 415 1102 L 412 1100 L 410 1100 L 409 1099 L 407 1099 L 402 1096 L 400 1096 L 399 1095 L 396 1094 L 393 1091 L 393 1090 L 392 1089 L 392 1087 L 393 1086 L 393 1084 L 395 1081 Z M 398 1073 L 399 1072 L 399 1070 L 400 1069 L 400 1068 L 402 1066 L 403 1067 L 405 1067 L 406 1068 L 408 1068 L 410 1070 L 411 1070 L 412 1071 L 413 1071 L 418 1074 L 420 1074 L 423 1076 L 426 1076 L 427 1077 L 430 1077 L 431 1078 L 435 1078 L 436 1079 L 438 1079 L 439 1080 L 438 1081 L 438 1083 L 435 1088 L 434 1087 L 431 1087 L 430 1086 L 427 1086 L 426 1085 L 424 1085 L 423 1084 L 421 1084 L 420 1083 L 418 1083 L 415 1081 L 413 1081 L 408 1078 L 406 1078 L 405 1077 L 404 1077 L 403 1076 L 400 1075 Z M 463 1058 L 464 1059 L 464 1060 L 462 1063 L 462 1065 L 461 1066 L 461 1068 L 460 1069 L 459 1072 L 455 1076 L 449 1078 L 448 1077 L 445 1077 L 444 1076 L 443 1076 L 440 1073 L 441 1072 L 441 1070 L 442 1069 L 442 1067 L 444 1064 L 444 1062 L 446 1059 L 446 1057 L 448 1055 L 450 1055 L 451 1056 L 455 1056 L 456 1057 L 460 1057 L 461 1058 Z M 418 1044 L 419 1045 L 421 1045 L 422 1046 L 424 1046 L 427 1048 L 429 1048 L 430 1049 L 432 1049 L 435 1051 L 438 1051 L 443 1054 L 443 1055 L 441 1058 L 441 1060 L 439 1063 L 439 1065 L 437 1068 L 437 1070 L 435 1072 L 428 1072 L 427 1071 L 425 1071 L 424 1070 L 422 1070 L 421 1069 L 420 1069 L 419 1068 L 418 1068 L 417 1067 L 414 1066 L 410 1062 L 410 1061 L 411 1060 L 411 1058 L 413 1055 L 413 1053 L 414 1052 L 414 1050 L 415 1049 L 416 1046 Z M 397 1033 L 398 1034 L 399 1034 L 401 1036 L 402 1036 L 403 1037 L 404 1037 L 405 1038 L 406 1038 L 407 1039 L 408 1039 L 413 1042 L 412 1043 L 412 1045 L 410 1048 L 410 1050 L 409 1051 L 409 1053 L 408 1054 L 408 1056 L 405 1061 L 401 1061 L 400 1060 L 397 1059 L 391 1053 L 391 1046 L 392 1045 L 392 1043 L 394 1040 L 394 1038 Z M 469 1024 L 470 1025 L 472 1025 L 477 1028 L 475 1031 L 475 1033 L 474 1034 L 474 1036 L 472 1039 L 472 1041 L 470 1044 L 470 1046 L 469 1047 L 469 1048 L 467 1050 L 464 1050 L 463 1049 L 460 1049 L 459 1048 L 459 1047 L 460 1046 L 460 1044 L 461 1043 L 461 1041 L 464 1036 L 464 1034 L 466 1031 L 466 1029 Z M 681 848 L 682 847 L 683 848 L 682 849 Z M 680 846 L 681 845 L 682 846 L 681 847 Z M 679 844 L 680 843 L 681 844 L 681 845 L 680 846 L 679 845 Z M 678 842 L 679 841 L 680 842 L 680 843 L 679 844 L 678 843 Z M 677 837 L 679 840 L 679 841 L 678 842 L 676 840 L 676 838 Z M 670 756 L 671 757 L 671 808 L 672 809 L 672 817 L 673 818 L 673 823 L 674 824 L 674 828 L 675 829 L 675 831 L 676 832 L 676 834 L 677 835 L 677 837 L 676 838 L 674 835 L 674 833 L 673 832 L 673 830 L 672 829 L 672 825 L 671 824 L 671 821 L 670 820 L 670 813 L 669 812 L 669 793 L 668 792 L 668 778 L 669 777 L 669 757 Z M 834 735 L 835 734 L 838 734 L 839 735 L 856 735 L 857 736 L 872 736 L 873 737 L 874 736 L 875 737 L 875 738 L 870 741 L 864 741 L 863 740 L 845 740 L 844 739 L 836 739 L 834 737 Z M 645 724 L 646 723 L 649 723 L 650 724 L 661 724 L 662 725 L 671 725 L 672 726 L 672 738 L 671 739 L 671 746 L 670 747 L 662 747 L 661 746 L 652 746 L 651 745 L 642 745 L 641 744 L 641 740 L 642 739 L 642 735 L 643 734 L 643 731 L 644 730 L 644 726 L 645 725 Z M 836 724 L 837 723 L 837 719 L 839 716 L 844 716 L 845 717 L 859 717 L 860 718 L 880 718 L 881 719 L 881 724 L 880 725 L 880 729 L 878 732 L 866 732 L 865 731 L 843 731 L 842 730 L 837 730 L 836 729 Z M 841 693 L 842 692 L 852 692 L 853 693 L 866 693 L 867 694 L 884 694 L 885 695 L 885 696 L 884 697 L 884 703 L 883 704 L 883 712 L 881 714 L 862 714 L 861 713 L 847 713 L 846 712 L 840 712 L 839 711 L 839 707 L 840 706 L 840 700 L 841 699 Z M 731 682 L 732 683 L 732 686 L 733 687 L 733 689 L 734 690 L 734 693 L 735 694 L 735 695 L 734 696 L 729 696 L 728 695 L 728 692 L 729 691 L 729 687 L 730 686 L 730 683 Z M 438 668 L 439 667 L 444 667 L 445 668 L 451 668 L 452 669 L 459 669 L 460 670 L 466 670 L 467 671 L 474 671 L 475 672 L 475 673 L 473 675 L 465 675 L 464 674 L 458 674 L 457 673 L 450 673 L 449 672 L 442 672 Z M 844 664 L 845 663 L 848 663 L 849 664 L 862 664 L 863 665 L 875 665 L 876 666 L 886 666 L 887 667 L 887 673 L 886 674 L 886 684 L 885 685 L 885 689 L 884 690 L 870 690 L 869 689 L 856 689 L 855 688 L 845 688 L 844 687 L 843 687 L 842 686 L 842 684 L 843 683 L 843 672 L 844 671 Z M 438 657 L 440 655 L 441 656 L 448 656 L 449 657 L 455 657 L 456 658 L 464 658 L 465 659 L 472 659 L 473 660 L 476 660 L 477 661 L 477 665 L 475 668 L 474 667 L 467 667 L 466 666 L 459 666 L 458 665 L 452 665 L 451 664 L 444 664 L 443 663 L 439 663 L 438 662 Z M 898 645 L 899 646 L 902 646 L 903 647 L 906 647 L 907 648 L 909 648 L 910 649 L 913 649 L 914 650 L 916 650 L 917 651 L 920 651 L 921 652 L 922 652 L 924 654 L 923 655 L 923 659 L 921 661 L 920 661 L 919 662 L 917 662 L 914 664 L 912 664 L 909 666 L 909 667 L 908 668 L 908 678 L 907 679 L 907 689 L 906 690 L 906 691 L 908 694 L 909 694 L 911 696 L 914 697 L 916 699 L 919 700 L 921 702 L 921 704 L 920 705 L 920 708 L 919 709 L 915 709 L 914 710 L 907 710 L 906 711 L 901 711 L 900 712 L 894 712 L 893 713 L 892 713 L 891 712 L 891 709 L 892 708 L 892 701 L 893 700 L 893 692 L 894 691 L 894 681 L 895 680 L 895 667 L 896 666 L 896 646 L 897 645 Z M 440 643 L 441 642 L 442 642 L 443 643 L 451 643 L 452 644 L 459 644 L 460 645 L 466 645 L 467 646 L 474 646 L 475 647 L 478 647 L 479 648 L 479 650 L 478 651 L 478 655 L 477 656 L 471 656 L 470 655 L 464 655 L 463 654 L 456 654 L 455 653 L 448 653 L 447 652 L 442 652 L 439 650 L 440 649 Z M 845 641 L 846 640 L 859 640 L 860 641 L 870 641 L 871 642 L 880 642 L 881 643 L 886 643 L 888 645 L 888 651 L 887 652 L 887 661 L 886 662 L 881 662 L 880 661 L 867 661 L 866 660 L 852 660 L 851 659 L 845 659 L 844 658 L 844 653 L 845 652 Z M 441 633 L 442 632 L 442 630 L 443 629 L 444 629 L 445 630 L 451 630 L 452 631 L 458 631 L 459 632 L 466 632 L 467 633 L 476 633 L 477 634 L 479 634 L 480 635 L 480 642 L 479 643 L 475 643 L 474 642 L 466 642 L 465 641 L 460 641 L 459 640 L 452 640 L 451 639 L 444 639 L 441 637 Z M 490 626 L 498 626 L 499 627 L 506 627 L 507 628 L 512 628 L 513 629 L 513 632 L 512 633 L 512 639 L 511 640 L 511 647 L 510 648 L 510 654 L 509 655 L 509 661 L 508 662 L 508 669 L 507 670 L 502 670 L 501 669 L 495 669 L 494 668 L 488 668 L 485 666 L 485 659 L 486 658 L 486 651 L 487 650 L 487 643 L 488 642 L 488 634 L 489 633 L 489 627 Z M 844 624 L 846 622 L 849 622 L 850 623 L 860 623 L 861 624 L 872 624 L 873 625 L 881 625 L 882 626 L 885 626 L 887 628 L 887 637 L 888 638 L 887 639 L 884 639 L 883 638 L 874 638 L 873 637 L 864 637 L 863 636 L 852 636 L 851 635 L 846 635 L 845 634 L 845 628 L 844 627 Z M 830 620 L 831 621 L 835 621 L 836 622 L 836 664 L 835 665 L 835 677 L 834 678 L 834 687 L 833 688 L 833 695 L 832 696 L 832 701 L 831 702 L 831 709 L 830 710 L 830 715 L 829 716 L 829 720 L 828 721 L 828 724 L 827 725 L 827 727 L 826 728 L 819 728 L 818 727 L 818 725 L 819 724 L 819 720 L 820 719 L 820 714 L 821 713 L 821 708 L 822 707 L 822 701 L 823 700 L 823 694 L 824 693 L 824 685 L 825 684 L 825 675 L 826 674 L 826 661 L 827 660 L 827 621 L 828 620 Z M 443 620 L 444 619 L 452 619 L 453 620 L 460 620 L 461 621 L 468 621 L 469 622 L 477 622 L 478 623 L 480 623 L 481 624 L 481 629 L 480 630 L 474 630 L 473 629 L 467 629 L 466 628 L 459 628 L 458 627 L 452 627 L 451 626 L 444 626 L 443 625 Z M 844 614 L 845 613 L 848 612 L 849 613 L 859 613 L 860 614 L 870 614 L 871 615 L 879 615 L 880 616 L 881 616 L 885 620 L 885 621 L 884 622 L 883 621 L 877 621 L 876 620 L 864 620 L 863 619 L 853 619 L 852 618 L 846 618 L 845 619 L 844 618 Z M 446 613 L 448 611 L 454 611 L 455 612 L 463 612 L 464 613 L 470 613 L 471 614 L 478 614 L 479 615 L 480 615 L 482 617 L 482 618 L 481 619 L 477 619 L 476 618 L 470 618 L 469 617 L 462 617 L 461 616 L 454 616 L 453 615 L 447 615 L 446 614 Z M 545 589 L 546 588 L 547 589 L 550 589 L 551 590 L 554 590 L 555 591 L 558 591 L 559 592 L 561 592 L 562 593 L 565 593 L 566 594 L 569 594 L 570 595 L 572 595 L 573 596 L 571 598 L 570 597 L 567 597 L 566 596 L 564 596 L 563 595 L 560 595 L 559 594 L 556 594 L 555 593 L 552 593 L 551 592 L 549 592 L 548 591 L 546 591 L 545 590 Z M 691 582 L 694 582 L 695 583 L 697 583 L 698 584 L 700 584 L 701 585 L 702 585 L 703 586 L 704 586 L 705 587 L 708 588 L 719 599 L 719 600 L 721 602 L 721 603 L 722 604 L 722 605 L 723 606 L 723 607 L 724 608 L 724 609 L 727 614 L 727 616 L 728 617 L 728 620 L 729 621 L 729 625 L 730 626 L 730 645 L 729 646 L 729 651 L 728 652 L 728 655 L 727 656 L 727 659 L 726 660 L 726 664 L 725 665 L 725 670 L 724 671 L 724 674 L 723 675 L 723 679 L 722 680 L 722 684 L 721 685 L 721 688 L 720 689 L 720 693 L 719 694 L 719 697 L 718 698 L 718 702 L 717 703 L 717 706 L 716 707 L 716 711 L 715 712 L 715 715 L 714 716 L 714 720 L 713 721 L 713 724 L 712 725 L 712 729 L 711 730 L 711 733 L 710 734 L 710 738 L 709 739 L 709 742 L 708 743 L 708 746 L 707 747 L 707 751 L 706 752 L 706 756 L 705 757 L 705 761 L 704 762 L 704 765 L 703 766 L 703 770 L 702 771 L 702 774 L 701 775 L 701 780 L 700 781 L 700 785 L 699 786 L 699 792 L 698 793 L 698 813 L 699 814 L 699 818 L 700 819 L 700 823 L 701 824 L 701 826 L 703 829 L 703 831 L 704 832 L 705 835 L 709 840 L 709 841 L 712 844 L 712 845 L 718 851 L 719 851 L 723 855 L 724 855 L 729 859 L 732 860 L 735 863 L 735 865 L 734 866 L 733 866 L 732 867 L 730 867 L 729 868 L 724 868 L 723 867 L 718 867 L 717 866 L 715 866 L 714 865 L 712 865 L 711 864 L 710 864 L 709 863 L 706 862 L 704 860 L 703 860 L 700 857 L 699 857 L 693 851 L 693 850 L 690 847 L 690 846 L 688 844 L 688 843 L 687 842 L 687 841 L 684 836 L 684 834 L 683 833 L 683 831 L 682 830 L 682 828 L 681 827 L 681 823 L 680 822 L 680 817 L 679 816 L 679 809 L 678 808 L 678 762 L 679 761 L 679 739 L 680 738 L 680 724 L 681 723 L 681 717 L 682 716 L 682 712 L 683 711 L 683 706 L 684 705 L 684 700 L 685 699 L 685 694 L 686 693 L 686 689 L 687 688 L 687 683 L 688 682 L 688 677 L 689 676 L 689 671 L 690 670 L 690 664 L 691 663 L 691 658 L 692 657 L 692 652 L 693 651 L 693 646 L 694 645 L 694 640 L 695 639 L 695 634 L 696 633 L 696 627 L 697 626 L 697 622 L 698 621 L 698 616 L 699 615 L 699 611 L 700 610 L 700 603 L 698 601 L 697 601 L 694 599 L 692 599 L 691 598 L 689 598 L 686 596 L 686 590 L 688 587 L 688 585 Z M 545 583 L 546 582 L 546 580 L 547 579 L 549 579 L 550 580 L 553 580 L 554 581 L 557 581 L 558 582 L 561 582 L 562 583 L 565 583 L 566 584 L 568 584 L 569 585 L 572 585 L 573 586 L 576 586 L 577 587 L 576 588 L 576 590 L 574 592 L 573 591 L 571 591 L 570 590 L 567 590 L 566 589 L 562 589 L 561 588 L 559 588 L 558 587 L 555 587 L 554 586 L 551 586 L 550 585 L 548 585 Z M 590 567 L 591 568 L 594 568 L 595 569 L 596 569 L 597 570 L 597 572 L 596 573 L 596 576 L 595 577 L 595 580 L 594 581 L 594 584 L 593 585 L 593 588 L 592 589 L 592 591 L 590 593 L 588 593 L 587 592 L 585 592 L 583 590 L 583 589 L 584 588 L 584 585 L 585 584 L 585 581 L 586 580 L 586 578 L 587 577 L 587 574 L 588 573 L 588 570 Z M 614 568 L 615 569 L 614 570 L 614 571 L 613 572 L 613 573 L 612 574 L 612 575 L 611 576 L 611 577 L 610 578 L 610 579 L 609 580 L 608 583 L 606 585 L 606 586 L 605 587 L 605 588 L 604 589 L 604 590 L 603 591 L 602 594 L 600 596 L 599 599 L 597 601 L 596 600 L 596 598 L 597 597 L 597 594 L 598 593 L 598 591 L 599 590 L 599 587 L 600 586 L 600 584 L 601 583 L 601 580 L 602 579 L 602 576 L 603 575 L 603 573 L 604 572 L 604 569 L 605 568 L 605 567 L 606 566 L 608 566 L 609 567 L 611 567 L 612 568 Z M 549 566 L 550 565 L 553 565 L 554 566 L 557 566 L 558 567 L 561 567 L 562 568 L 565 568 L 566 569 L 569 569 L 570 570 L 572 570 L 573 571 L 576 571 L 577 572 L 579 572 L 581 574 L 580 575 L 580 577 L 579 578 L 579 581 L 577 583 L 576 583 L 575 582 L 573 582 L 572 581 L 568 581 L 567 580 L 565 580 L 564 579 L 561 579 L 560 578 L 558 578 L 557 577 L 554 577 L 553 576 L 550 576 L 547 574 L 548 573 L 548 569 L 549 568 Z M 551 558 L 553 555 L 554 556 L 557 556 L 558 557 L 560 557 L 561 558 L 564 558 L 565 559 L 567 559 L 568 560 L 571 560 L 572 561 L 574 561 L 575 562 L 578 562 L 579 563 L 581 563 L 583 565 L 583 566 L 582 567 L 582 568 L 581 569 L 580 569 L 579 568 L 577 568 L 576 567 L 573 567 L 572 566 L 570 566 L 569 565 L 566 565 L 565 564 L 562 564 L 561 563 L 558 563 L 557 562 L 554 562 L 551 560 Z M 555 551 L 556 550 L 559 550 L 560 551 L 562 551 L 563 552 L 566 552 L 567 553 L 570 553 L 571 554 L 573 554 L 574 555 L 577 555 L 578 556 L 580 556 L 583 558 L 582 559 L 580 559 L 579 558 L 576 558 L 575 557 L 572 557 L 571 556 L 569 556 L 568 555 L 565 555 L 564 554 L 562 554 L 561 553 L 558 553 Z M 795 583 L 799 587 L 799 590 L 809 617 L 813 619 L 817 619 L 819 626 L 818 670 L 810 725 L 808 727 L 806 727 L 805 726 L 791 726 L 790 725 L 758 724 L 753 723 L 748 718 L 734 667 L 739 642 L 739 627 L 734 608 L 723 590 L 714 582 L 703 576 L 690 573 L 685 575 L 679 584 L 677 590 L 677 597 L 681 603 L 690 606 L 691 611 L 687 630 L 687 636 L 681 672 L 679 678 L 678 690 L 676 696 L 674 714 L 672 717 L 646 715 L 645 714 L 642 714 L 638 717 L 628 759 L 624 762 L 617 763 L 611 766 L 603 776 L 578 854 L 579 859 L 623 875 L 626 877 L 626 879 L 624 881 L 623 880 L 608 880 L 607 879 L 586 880 L 580 883 L 570 894 L 565 907 L 566 927 L 552 943 L 547 956 L 548 979 L 536 993 L 531 1006 L 530 1012 L 531 1021 L 536 1033 L 531 1036 L 517 1035 L 503 1032 L 479 1023 L 467 1020 L 463 1025 L 455 1046 L 451 1047 L 420 1036 L 403 1027 L 400 1024 L 402 1016 L 433 940 L 437 927 L 440 922 L 441 917 L 468 851 L 469 846 L 482 816 L 501 765 L 501 747 L 495 732 L 481 717 L 469 709 L 464 704 L 464 700 L 468 696 L 469 697 L 510 701 L 512 699 L 513 687 L 515 681 L 516 682 L 532 683 L 533 684 L 565 687 L 582 690 L 591 690 L 590 686 L 569 684 L 568 683 L 516 677 L 515 674 L 516 673 L 516 665 L 518 657 L 522 621 L 525 619 L 526 620 L 576 625 L 585 627 L 591 626 L 605 627 L 607 626 L 626 588 L 626 586 L 632 576 L 631 572 L 629 572 L 626 576 L 605 621 L 603 623 L 597 623 L 596 622 L 595 623 L 594 621 L 602 607 L 602 603 L 619 570 L 636 543 L 642 539 L 650 540 L 657 543 L 699 554 L 706 557 L 716 559 Z M 722 534 L 725 532 L 727 532 L 728 531 L 730 531 L 731 530 L 733 530 L 734 529 L 736 529 L 737 528 L 740 528 L 741 527 L 743 527 L 744 526 L 746 526 L 747 525 L 749 525 L 750 524 L 752 524 L 753 523 L 755 523 L 756 522 L 758 522 L 759 521 L 761 521 L 762 520 L 764 520 L 765 519 L 768 519 L 769 520 L 769 523 L 770 524 L 770 526 L 771 527 L 771 529 L 772 530 L 772 532 L 773 533 L 773 536 L 774 537 L 774 539 L 775 540 L 775 542 L 776 543 L 776 545 L 777 546 L 777 548 L 778 549 L 778 552 L 779 553 L 779 556 L 780 557 L 780 559 L 781 560 L 781 562 L 782 563 L 782 565 L 783 566 L 783 569 L 782 570 L 780 570 L 779 569 L 777 569 L 776 568 L 773 568 L 772 567 L 770 567 L 769 566 L 767 566 L 766 565 L 763 565 L 762 564 L 760 564 L 759 563 L 757 563 L 756 562 L 753 562 L 752 561 L 750 561 L 749 560 L 746 560 L 745 559 L 743 559 L 742 558 L 740 558 L 739 557 L 736 557 L 735 556 L 732 556 L 731 555 L 730 555 L 728 552 L 728 550 L 727 549 L 727 547 L 726 546 L 726 544 L 725 543 L 725 541 L 724 540 L 724 538 L 723 537 L 723 535 Z M 770 477 L 770 479 L 771 480 L 771 482 L 772 483 L 772 485 L 773 486 L 773 488 L 774 489 L 774 491 L 775 492 L 775 494 L 776 495 L 776 497 L 777 498 L 777 500 L 778 501 L 778 505 L 776 507 L 774 507 L 773 508 L 771 508 L 770 509 L 768 509 L 767 510 L 765 510 L 764 511 L 762 511 L 761 512 L 759 512 L 758 513 L 756 513 L 755 514 L 753 514 L 752 515 L 750 515 L 749 516 L 747 516 L 746 517 L 744 517 L 743 518 L 741 518 L 740 519 L 738 519 L 737 520 L 735 520 L 734 521 L 732 521 L 731 522 L 728 522 L 727 523 L 725 523 L 724 524 L 722 524 L 721 525 L 719 525 L 718 526 L 716 526 L 715 527 L 713 527 L 712 528 L 707 528 L 706 527 L 706 526 L 705 525 L 705 523 L 704 522 L 704 520 L 703 519 L 703 516 L 701 513 L 701 511 L 700 510 L 700 508 L 699 507 L 699 505 L 698 504 L 698 501 L 697 500 L 699 498 L 700 498 L 701 497 L 703 497 L 704 496 L 706 496 L 707 495 L 709 495 L 710 494 L 712 494 L 713 493 L 715 493 L 716 492 L 718 492 L 721 490 L 724 490 L 725 489 L 727 489 L 728 488 L 730 488 L 731 487 L 733 487 L 734 486 L 736 486 L 737 485 L 739 485 L 740 484 L 742 484 L 743 483 L 745 483 L 746 482 L 748 482 L 749 481 L 751 481 L 752 480 L 754 480 L 755 479 L 757 479 L 758 478 L 760 478 L 761 477 L 763 477 L 764 476 L 766 476 L 767 475 L 768 475 Z M 797 292 L 797 294 L 798 295 L 798 297 L 799 298 L 799 300 L 800 301 L 800 303 L 801 304 L 801 306 L 802 307 L 802 310 L 803 311 L 803 313 L 804 314 L 804 316 L 805 317 L 805 319 L 806 320 L 806 322 L 807 323 L 807 325 L 808 326 L 808 329 L 809 330 L 809 332 L 810 333 L 810 335 L 811 336 L 811 338 L 812 339 L 812 342 L 813 343 L 813 345 L 814 346 L 814 348 L 815 349 L 815 351 L 816 352 L 816 354 L 817 355 L 817 358 L 818 359 L 818 361 L 819 362 L 819 364 L 820 365 L 820 367 L 821 368 L 821 371 L 822 372 L 822 374 L 823 375 L 823 377 L 824 378 L 824 380 L 825 381 L 825 383 L 826 384 L 826 392 L 825 393 L 825 395 L 824 396 L 823 399 L 821 401 L 821 402 L 816 407 L 816 408 L 812 412 L 812 413 L 807 418 L 807 419 L 803 423 L 803 424 L 799 428 L 799 429 L 794 434 L 794 435 L 790 439 L 790 440 L 786 444 L 786 445 L 781 450 L 781 451 L 778 454 L 778 455 L 773 460 L 773 461 L 770 464 L 770 465 L 768 468 L 768 470 L 767 471 L 765 471 L 764 472 L 762 472 L 761 473 L 759 473 L 758 474 L 756 474 L 755 475 L 752 475 L 751 476 L 749 476 L 748 477 L 746 477 L 745 478 L 743 478 L 742 479 L 740 479 L 739 480 L 737 480 L 736 481 L 734 481 L 733 482 L 731 482 L 730 483 L 728 483 L 727 484 L 725 484 L 724 485 L 722 485 L 721 486 L 719 486 L 718 487 L 716 487 L 715 488 L 713 488 L 710 490 L 708 490 L 707 491 L 705 491 L 704 492 L 702 492 L 701 493 L 699 493 L 698 494 L 695 494 L 693 492 L 691 492 L 690 491 L 688 491 L 687 490 L 684 490 L 683 489 L 680 489 L 679 488 L 676 488 L 675 487 L 672 487 L 671 486 L 668 486 L 667 485 L 664 485 L 663 484 L 660 484 L 659 483 L 657 483 L 656 482 L 653 482 L 652 481 L 649 481 L 648 480 L 644 480 L 643 479 L 640 479 L 639 478 L 636 478 L 635 477 L 632 477 L 631 476 L 628 476 L 627 475 L 624 475 L 623 474 L 620 474 L 619 473 L 616 473 L 615 472 L 611 472 L 610 471 L 608 471 L 607 470 L 604 469 L 601 466 L 600 466 L 598 464 L 598 463 L 596 461 L 596 460 L 594 457 L 594 455 L 593 454 L 593 452 L 592 451 L 592 448 L 590 445 L 590 443 L 589 442 L 589 440 L 588 439 L 588 437 L 587 436 L 587 434 L 586 433 L 586 431 L 585 430 L 585 428 L 584 427 L 584 425 L 583 424 L 583 422 L 582 421 L 582 419 L 581 418 L 581 416 L 580 415 L 580 413 L 579 412 L 579 410 L 578 409 L 578 407 L 577 406 L 577 404 L 576 403 L 576 401 L 575 400 L 575 398 L 574 397 L 574 395 L 573 394 L 573 392 L 572 391 L 572 389 L 571 388 L 571 386 L 570 385 L 570 383 L 569 382 L 569 380 L 568 379 L 568 377 L 567 376 L 567 374 L 566 373 L 566 371 L 565 370 L 565 368 L 564 367 L 564 365 L 563 364 L 563 362 L 562 361 L 562 359 L 561 358 L 561 356 L 560 355 L 560 353 L 559 352 L 559 350 L 558 349 L 558 347 L 557 346 L 557 344 L 556 343 L 556 341 L 555 340 L 555 338 L 554 337 L 554 335 L 553 334 L 553 332 L 552 331 L 552 329 L 551 328 L 551 326 L 550 325 L 550 323 L 552 321 L 553 321 L 556 318 L 559 317 L 561 315 L 564 314 L 566 312 L 567 312 L 572 309 L 574 309 L 577 307 L 579 307 L 580 306 L 581 306 L 582 305 L 584 305 L 585 304 L 588 304 L 589 303 L 592 303 L 593 302 L 598 302 L 599 301 L 618 301 L 619 302 L 624 302 L 625 303 L 629 303 L 630 304 L 632 304 L 633 305 L 636 305 L 637 306 L 639 306 L 640 307 L 642 307 L 643 308 L 645 308 L 646 309 L 649 309 L 650 310 L 653 310 L 654 311 L 658 311 L 659 312 L 664 312 L 665 313 L 679 313 L 680 312 L 686 312 L 687 311 L 690 311 L 691 310 L 694 310 L 695 309 L 697 309 L 700 307 L 702 307 L 703 306 L 706 305 L 708 303 L 709 303 L 710 302 L 713 301 L 715 299 L 716 299 L 717 298 L 718 298 L 719 297 L 720 297 L 721 296 L 722 296 L 723 295 L 724 295 L 729 292 L 731 292 L 732 291 L 734 291 L 735 290 L 739 290 L 740 289 L 746 289 L 747 288 L 757 288 L 758 289 L 765 289 L 766 290 L 770 290 L 771 291 L 776 291 L 777 292 L 794 292 L 795 291 L 796 291 Z M 766 193 L 766 195 L 767 196 L 767 198 L 768 199 L 768 201 L 769 202 L 769 204 L 770 205 L 770 208 L 771 209 L 771 211 L 772 212 L 772 214 L 773 215 L 773 217 L 774 218 L 774 220 L 775 221 L 775 224 L 776 225 L 776 227 L 777 228 L 777 230 L 778 231 L 778 233 L 779 234 L 779 236 L 780 237 L 780 239 L 781 240 L 781 243 L 782 244 L 782 246 L 783 247 L 783 249 L 784 250 L 784 252 L 785 253 L 785 255 L 786 256 L 786 258 L 787 259 L 787 262 L 788 263 L 788 265 L 789 266 L 789 268 L 790 269 L 790 271 L 791 272 L 791 275 L 792 276 L 792 278 L 793 279 L 793 281 L 794 282 L 793 283 L 792 283 L 791 284 L 780 284 L 779 283 L 774 283 L 773 282 L 769 282 L 768 281 L 761 281 L 760 280 L 743 280 L 742 281 L 737 281 L 736 282 L 733 282 L 732 283 L 729 283 L 728 284 L 726 284 L 725 285 L 724 285 L 723 286 L 722 286 L 721 287 L 720 287 L 719 288 L 718 288 L 717 289 L 716 289 L 715 290 L 714 290 L 713 291 L 710 292 L 708 294 L 705 295 L 703 297 L 702 297 L 699 299 L 697 299 L 696 300 L 694 300 L 691 302 L 688 302 L 687 303 L 684 303 L 683 304 L 662 304 L 661 303 L 657 303 L 656 302 L 653 302 L 652 301 L 649 301 L 648 300 L 646 300 L 645 299 L 643 299 L 642 298 L 640 298 L 639 297 L 636 297 L 635 296 L 633 296 L 632 295 L 628 295 L 627 294 L 623 294 L 622 293 L 614 293 L 613 292 L 604 292 L 603 293 L 595 293 L 594 294 L 590 294 L 589 295 L 586 295 L 585 296 L 582 296 L 581 297 L 579 297 L 576 299 L 574 299 L 571 301 L 569 301 L 568 302 L 565 303 L 563 305 L 562 305 L 561 306 L 560 306 L 559 307 L 556 308 L 554 310 L 553 310 L 548 314 L 547 314 L 546 313 L 546 311 L 545 310 L 545 308 L 544 307 L 544 305 L 543 304 L 543 302 L 542 301 L 542 299 L 541 298 L 541 296 L 540 295 L 540 293 L 539 292 L 539 290 L 538 289 L 538 287 L 537 286 L 537 284 L 536 283 L 536 281 L 535 280 L 535 278 L 534 277 L 534 274 L 533 273 L 533 271 L 532 270 L 532 268 L 537 264 L 538 264 L 539 263 L 540 263 L 541 262 L 542 262 L 543 261 L 546 260 L 548 258 L 549 258 L 550 257 L 551 257 L 552 256 L 553 256 L 554 255 L 555 255 L 556 254 L 557 254 L 562 251 L 564 251 L 566 249 L 568 249 L 569 248 L 570 248 L 571 247 L 572 247 L 577 244 L 579 244 L 584 241 L 586 241 L 587 240 L 588 240 L 591 238 L 593 238 L 598 235 L 600 235 L 603 233 L 605 233 L 606 232 L 608 232 L 609 231 L 610 231 L 611 230 L 613 230 L 616 228 L 618 228 L 619 227 L 621 227 L 622 226 L 624 226 L 627 224 L 629 224 L 630 223 L 632 223 L 633 222 L 635 222 L 636 221 L 638 221 L 639 220 L 641 220 L 642 219 L 644 219 L 645 218 L 647 218 L 648 217 L 650 217 L 651 216 L 653 216 L 654 215 L 656 215 L 657 214 L 660 214 L 661 213 L 663 213 L 664 212 L 666 212 L 667 211 L 670 211 L 671 210 L 673 210 L 674 209 L 677 209 L 678 208 L 681 208 L 682 207 L 685 207 L 686 206 L 689 206 L 690 205 L 692 205 L 693 204 L 696 204 L 697 203 L 700 203 L 701 202 L 704 202 L 705 201 L 709 201 L 710 200 L 714 200 L 715 199 L 718 199 L 719 198 L 723 198 L 724 197 L 728 197 L 729 196 L 733 196 L 734 195 L 739 195 L 740 194 L 746 194 L 747 193 L 754 193 L 755 192 L 765 192 Z M 785 182 L 784 183 L 784 184 L 779 189 L 778 189 L 776 191 L 775 191 L 774 190 L 773 187 L 770 184 L 756 184 L 755 185 L 748 185 L 747 186 L 741 186 L 740 187 L 734 187 L 733 188 L 729 188 L 728 189 L 724 189 L 723 190 L 719 190 L 718 191 L 714 191 L 713 192 L 710 192 L 709 193 L 705 193 L 704 194 L 701 194 L 700 195 L 697 195 L 696 196 L 693 196 L 692 197 L 689 197 L 688 198 L 685 198 L 684 199 L 681 199 L 680 200 L 677 200 L 676 201 L 674 201 L 673 202 L 670 202 L 669 203 L 667 203 L 666 204 L 663 204 L 662 205 L 660 205 L 659 206 L 657 206 L 656 207 L 653 207 L 652 208 L 650 208 L 649 209 L 647 209 L 646 210 L 644 210 L 643 211 L 641 211 L 640 212 L 638 212 L 637 213 L 635 213 L 634 214 L 632 214 L 631 215 L 629 215 L 628 216 L 626 216 L 623 218 L 621 218 L 620 219 L 618 219 L 617 220 L 615 220 L 614 221 L 612 221 L 609 223 L 607 223 L 604 225 L 602 225 L 599 227 L 597 227 L 594 229 L 592 229 L 589 231 L 587 231 L 582 234 L 580 234 L 579 235 L 578 235 L 573 238 L 571 238 L 570 239 L 569 239 L 568 240 L 567 240 L 562 243 L 560 243 L 559 244 L 558 244 L 557 245 L 556 245 L 555 246 L 554 246 L 553 247 L 550 248 L 548 250 L 547 250 L 546 251 L 545 251 L 544 252 L 543 252 L 542 253 L 541 253 L 540 254 L 537 255 L 535 257 L 534 257 L 533 258 L 532 258 L 530 260 L 527 261 L 523 265 L 523 266 L 522 267 L 522 269 L 523 270 L 523 273 L 522 274 L 518 274 L 517 273 L 513 273 L 512 272 L 511 272 L 509 270 L 510 269 L 510 268 L 516 262 L 517 262 L 520 259 L 521 259 L 523 257 L 526 256 L 528 254 L 531 253 L 533 251 L 534 251 L 535 250 L 536 250 L 537 249 L 538 249 L 539 248 L 540 248 L 541 247 L 544 246 L 546 244 L 547 244 L 550 242 L 552 242 L 554 240 L 556 240 L 557 239 L 558 239 L 559 238 L 560 238 L 561 237 L 562 237 L 563 236 L 564 236 L 565 235 L 566 235 L 571 232 L 573 232 L 574 231 L 575 231 L 580 228 L 582 228 L 585 226 L 587 226 L 590 224 L 592 224 L 595 222 L 597 222 L 600 220 L 602 220 L 603 219 L 604 219 L 605 218 L 607 218 L 610 216 L 612 216 L 613 215 L 615 215 L 618 213 L 620 213 L 621 212 L 623 212 L 624 211 L 626 211 L 627 210 L 629 210 L 630 209 L 632 209 L 635 207 L 638 207 L 639 206 L 641 206 L 642 205 L 644 205 L 645 204 L 647 204 L 648 203 L 650 203 L 651 202 L 654 202 L 655 201 L 657 201 L 658 200 L 660 200 L 661 199 L 663 199 L 664 198 L 667 198 L 668 197 L 670 197 L 671 196 L 674 196 L 675 195 L 678 195 L 679 194 L 682 194 L 683 193 L 686 193 L 687 192 L 690 192 L 691 191 L 694 191 L 695 190 L 698 190 L 699 189 L 702 189 L 703 188 L 707 188 L 708 187 L 711 187 L 712 186 L 716 186 L 717 185 L 721 185 L 722 184 L 727 184 L 728 183 L 733 183 L 734 182 L 739 182 L 740 181 L 746 181 L 747 180 L 756 180 L 757 179 L 779 179 L 780 180 L 783 180 Z M 767 121 L 769 125 L 769 127 L 770 128 L 770 130 L 771 131 L 776 148 L 777 149 L 777 152 L 778 153 L 781 164 L 782 165 L 782 168 L 783 169 L 783 171 L 782 172 L 781 171 L 776 171 L 775 170 L 775 168 L 773 164 L 773 161 L 772 160 L 772 158 L 771 157 L 771 155 L 770 154 L 770 152 L 766 142 L 766 139 L 765 138 L 763 130 L 761 127 L 759 127 L 758 128 L 758 131 L 759 132 L 759 134 L 760 135 L 760 137 L 761 138 L 761 140 L 765 150 L 765 153 L 766 154 L 766 156 L 767 157 L 767 159 L 771 169 L 769 171 L 754 171 L 752 168 L 752 165 L 751 164 L 751 162 L 750 161 L 750 159 L 749 158 L 749 156 L 745 146 L 745 143 L 741 133 L 741 130 L 739 127 L 737 127 L 736 128 L 736 132 L 737 133 L 737 135 L 739 139 L 739 142 L 740 143 L 740 145 L 741 146 L 741 148 L 742 149 L 742 151 L 746 161 L 746 164 L 748 168 L 748 171 L 747 172 L 743 172 L 742 173 L 738 173 L 737 174 L 732 174 L 731 175 L 726 175 L 725 176 L 722 172 L 722 169 L 721 168 L 720 162 L 719 161 L 719 159 L 718 158 L 718 156 L 714 146 L 714 143 L 713 142 L 712 137 L 710 134 L 710 132 L 709 131 L 707 131 L 706 132 L 706 135 L 708 139 L 708 142 L 709 143 L 709 145 L 713 155 L 713 158 L 714 159 L 719 176 L 718 177 L 714 177 L 709 179 L 705 179 L 704 180 L 701 180 L 696 182 L 688 183 L 686 181 L 686 178 L 685 177 L 685 175 L 684 174 L 684 172 L 683 171 L 683 169 L 679 159 L 679 156 L 678 155 L 678 153 L 674 143 L 674 140 L 672 138 L 670 138 L 669 139 L 670 145 L 671 146 L 671 148 L 672 149 L 672 151 L 673 152 L 673 154 L 677 164 L 677 167 L 678 168 L 678 170 L 682 180 L 682 183 L 683 184 L 680 186 L 669 188 L 668 189 L 662 190 L 655 193 L 652 193 L 651 194 L 645 195 L 643 192 L 643 190 L 641 186 L 641 183 L 640 182 L 640 180 L 639 179 L 639 177 L 638 176 L 638 174 L 637 173 L 637 171 L 636 170 L 636 168 L 632 158 L 631 152 L 630 150 L 627 150 L 626 151 L 627 153 L 627 156 L 628 157 L 628 159 L 629 160 L 629 162 L 633 172 L 633 175 L 635 178 L 636 184 L 640 194 L 640 196 L 638 198 L 621 203 L 618 205 L 616 205 L 613 207 L 611 207 L 604 210 L 601 210 L 600 209 L 600 207 L 599 206 L 599 204 L 598 203 L 598 201 L 597 200 L 597 198 L 596 197 L 596 195 L 595 194 L 595 192 L 594 191 L 594 189 L 593 188 L 593 186 L 592 185 L 586 166 L 583 166 L 582 168 L 583 169 L 583 171 L 584 172 L 584 174 L 585 175 L 585 177 L 586 178 L 586 180 L 587 181 L 587 183 L 588 184 L 588 186 L 589 187 L 589 189 L 590 190 L 590 192 L 591 193 L 591 195 L 595 205 L 595 208 L 597 212 L 592 215 L 590 215 L 587 217 L 580 219 L 573 223 L 571 223 L 565 226 L 564 225 L 564 223 L 560 213 L 560 210 L 557 204 L 557 202 L 556 201 L 551 184 L 549 182 L 547 182 L 546 183 L 546 185 L 547 186 L 547 188 L 548 189 L 548 191 L 549 192 L 549 194 L 550 195 L 550 197 L 551 198 L 551 200 L 552 201 L 557 218 L 559 221 L 559 224 L 561 227 L 559 229 L 537 240 L 535 237 L 534 232 L 532 229 L 532 227 L 531 226 L 531 224 L 530 223 L 530 221 L 529 220 L 529 218 L 528 217 L 523 200 L 521 197 L 519 197 L 518 198 L 518 202 L 519 203 L 520 208 L 522 211 L 522 213 L 523 214 L 527 228 L 529 231 L 532 242 L 530 244 L 525 246 L 516 252 L 514 249 L 510 235 L 508 232 L 508 230 L 507 229 L 502 212 L 501 211 L 498 211 L 498 216 L 499 217 L 503 231 L 505 234 L 505 237 L 507 240 L 507 242 L 511 252 L 511 255 L 505 261 L 504 260 L 504 258 L 502 255 L 502 252 L 501 251 L 501 249 L 500 248 L 500 246 L 499 245 L 499 243 L 498 242 L 498 240 L 497 239 L 497 237 L 496 236 L 496 234 L 495 233 L 495 231 L 494 230 L 494 228 L 490 218 L 490 215 L 489 214 L 489 207 L 492 201 L 502 191 L 503 191 L 516 181 L 519 180 L 526 175 L 533 172 L 535 170 L 557 159 L 559 159 L 564 156 L 566 156 L 573 152 L 575 152 L 588 146 L 593 145 L 596 143 L 604 141 L 607 139 L 609 139 L 619 135 L 622 135 L 629 132 L 632 132 L 639 129 L 642 129 L 643 128 L 646 128 L 647 127 L 650 127 L 651 126 L 654 126 L 655 125 L 658 125 L 659 124 L 662 124 L 667 122 L 671 122 L 676 120 L 686 119 L 687 118 L 697 117 L 698 116 L 704 116 L 705 115 L 712 115 L 713 114 L 723 114 L 724 113 L 747 113 L 748 114 L 754 114 L 755 115 L 761 116 Z"/>
    <path id="detail-002" d="M 484 706 L 481 707 L 481 710 L 482 710 L 483 711 L 484 711 L 485 712 L 488 713 L 490 715 L 491 715 L 493 717 L 494 717 L 506 729 L 507 732 L 509 734 L 509 735 L 510 736 L 510 738 L 511 739 L 511 740 L 512 741 L 512 743 L 513 744 L 513 748 L 514 749 L 514 763 L 513 764 L 513 768 L 512 769 L 512 771 L 511 772 L 511 774 L 509 777 L 509 779 L 507 782 L 507 784 L 505 787 L 505 789 L 504 790 L 504 792 L 503 793 L 503 794 L 501 797 L 501 799 L 499 802 L 499 804 L 498 805 L 498 807 L 496 810 L 496 812 L 494 815 L 494 817 L 492 820 L 492 822 L 490 825 L 490 827 L 489 828 L 489 830 L 487 833 L 487 835 L 484 840 L 484 842 L 483 843 L 483 845 L 481 848 L 481 850 L 480 851 L 480 852 L 479 853 L 479 855 L 477 858 L 477 860 L 476 861 L 476 863 L 474 866 L 474 868 L 472 871 L 472 873 L 470 876 L 470 878 L 469 879 L 469 880 L 468 881 L 468 883 L 466 886 L 466 888 L 465 889 L 465 891 L 463 894 L 463 896 L 460 901 L 460 903 L 458 906 L 458 908 L 456 911 L 456 913 L 455 914 L 455 915 L 454 916 L 454 918 L 452 921 L 452 923 L 451 924 L 451 926 L 449 929 L 449 931 L 447 934 L 447 936 L 446 937 L 446 939 L 443 944 L 443 946 L 441 949 L 441 951 L 440 952 L 440 954 L 437 959 L 437 961 L 436 962 L 436 964 L 434 967 L 434 969 L 432 972 L 432 974 L 431 975 L 431 977 L 429 980 L 429 982 L 428 983 L 428 984 L 427 985 L 427 987 L 425 990 L 425 992 L 424 993 L 424 995 L 423 996 L 423 997 L 421 1000 L 421 1002 L 419 1005 L 419 1007 L 418 1008 L 418 1010 L 419 1011 L 422 1011 L 423 1010 L 423 1008 L 425 1005 L 425 1003 L 426 1002 L 426 1000 L 428 997 L 428 995 L 429 994 L 429 993 L 430 992 L 430 990 L 432 987 L 432 985 L 433 984 L 433 982 L 434 981 L 434 980 L 435 979 L 435 977 L 437 974 L 437 972 L 438 971 L 438 969 L 440 966 L 440 964 L 442 961 L 442 959 L 445 954 L 445 952 L 446 951 L 446 949 L 448 946 L 448 944 L 450 941 L 450 939 L 452 936 L 452 934 L 454 931 L 454 929 L 456 926 L 456 924 L 458 921 L 458 919 L 459 918 L 459 917 L 460 916 L 460 914 L 462 911 L 462 909 L 463 908 L 463 906 L 465 903 L 465 901 L 467 898 L 467 896 L 469 893 L 469 891 L 471 888 L 471 886 L 473 883 L 473 881 L 474 880 L 474 879 L 475 878 L 475 876 L 477 873 L 477 871 L 478 870 L 478 868 L 480 865 L 480 863 L 482 860 L 482 858 L 484 855 L 484 853 L 486 850 L 486 848 L 488 845 L 488 843 L 490 840 L 490 838 L 492 835 L 492 833 L 493 832 L 493 831 L 494 830 L 494 828 L 496 825 L 496 823 L 497 822 L 497 820 L 499 817 L 499 815 L 501 812 L 501 810 L 502 809 L 502 808 L 503 807 L 503 805 L 505 802 L 505 800 L 506 799 L 506 797 L 507 796 L 507 795 L 509 792 L 509 790 L 511 787 L 511 785 L 512 784 L 512 782 L 514 779 L 514 777 L 515 776 L 515 774 L 516 773 L 516 771 L 517 770 L 517 768 L 518 767 L 518 762 L 519 761 L 519 751 L 518 750 L 518 745 L 517 744 L 517 742 L 516 741 L 516 739 L 514 736 L 514 734 L 513 733 L 512 730 L 510 728 L 510 727 L 506 723 L 506 722 L 501 717 L 500 717 L 496 713 L 495 713 L 493 711 L 490 710 L 488 708 L 487 708 Z"/>
    <path id="detail-003" d="M 711 613 L 710 614 L 708 614 L 707 615 L 706 615 L 703 618 L 703 619 L 701 622 L 701 628 L 702 629 L 703 632 L 706 635 L 707 635 L 710 637 L 716 637 L 717 636 L 719 636 L 724 631 L 724 629 L 725 628 L 725 623 L 724 622 L 724 621 L 721 616 L 720 616 L 717 614 L 715 614 L 714 613 Z M 708 619 L 709 619 L 710 618 L 716 618 L 719 621 L 719 622 L 720 623 L 720 628 L 719 629 L 719 630 L 717 632 L 716 632 L 715 633 L 711 633 L 710 632 L 709 632 L 706 629 L 706 628 L 705 627 L 705 624 Z"/>
    <path id="spray-dot-004" d="M 974 667 L 973 668 L 972 668 L 970 670 L 970 674 L 973 676 L 977 676 L 980 673 L 980 670 L 978 668 L 977 668 L 976 667 Z"/>
    <path id="spray-dot-005" d="M 987 722 L 984 725 L 984 728 L 987 731 L 990 731 L 991 730 L 992 730 L 992 729 L 993 728 L 993 725 L 992 724 L 992 723 L 991 723 L 990 722 Z"/>
    <path id="spray-dot-006" d="M 962 694 L 962 695 L 961 696 L 961 698 L 964 701 L 969 701 L 970 700 L 971 697 L 970 696 L 970 695 L 968 693 L 964 693 L 963 694 Z"/>
    <path id="spray-dot-007" d="M 1006 596 L 1004 599 L 1004 602 L 1006 604 L 1009 605 L 1012 603 L 1012 602 L 1013 601 L 1013 599 L 1011 596 Z"/>
    <path id="spray-dot-008" d="M 1007 665 L 1004 667 L 1004 672 L 1007 674 L 1009 674 L 1012 672 L 1013 669 L 1011 666 L 1010 666 L 1009 665 Z"/>
    <path id="spray-dot-009" d="M 988 608 L 985 610 L 985 615 L 987 617 L 991 617 L 993 615 L 993 610 L 990 608 Z"/>
    <path id="spray-dot-010" d="M 1006 733 L 1004 735 L 1004 740 L 1006 742 L 1010 742 L 1012 739 L 1012 736 L 1011 735 L 1011 734 L 1010 734 L 1009 733 Z"/>
    <path id="spray-dot-011" d="M 969 712 L 967 714 L 966 717 L 967 718 L 967 719 L 969 721 L 972 721 L 975 718 L 975 715 L 972 712 Z"/>
    <path id="spray-dot-012" d="M 988 630 L 985 632 L 985 637 L 988 639 L 990 639 L 993 637 L 993 632 L 991 630 Z"/>
    <path id="spray-dot-013" d="M 989 700 L 986 701 L 984 703 L 984 706 L 986 709 L 990 709 L 992 707 L 992 706 L 993 705 L 992 702 Z"/>
    <path id="spray-dot-014" d="M 953 703 L 952 704 L 951 704 L 951 705 L 950 706 L 950 710 L 952 712 L 955 712 L 958 710 L 958 705 L 955 703 Z"/>
    <path id="spray-dot-015" d="M 1049 754 L 1046 756 L 1046 757 L 1045 758 L 1045 760 L 1046 761 L 1046 762 L 1047 762 L 1048 763 L 1051 763 L 1054 760 L 1054 758 L 1052 755 Z"/>
    <path id="spray-dot-016" d="M 970 638 L 968 640 L 968 645 L 970 647 L 973 647 L 974 646 L 975 646 L 975 645 L 976 644 L 976 641 L 973 638 Z"/>
    <path id="spray-dot-017" d="M 976 683 L 975 684 L 974 687 L 977 690 L 981 690 L 984 687 L 984 685 L 982 683 L 981 683 L 980 682 L 978 682 L 977 683 Z"/>
    <path id="spray-dot-018" d="M 952 669 L 950 672 L 950 674 L 951 675 L 951 676 L 952 677 L 956 677 L 957 676 L 958 676 L 958 675 L 959 674 L 959 672 L 958 671 L 958 670 L 957 669 Z"/>
    <path id="spray-dot-019" d="M 1010 708 L 1006 708 L 1004 710 L 1004 715 L 1005 716 L 1007 716 L 1008 717 L 1009 716 L 1010 716 L 1012 714 L 1012 710 Z"/>
    <path id="spray-dot-020" d="M 968 621 L 966 624 L 966 626 L 969 629 L 972 629 L 975 626 L 975 623 L 973 621 Z"/>
    <path id="spray-dot-021" d="M 1007 621 L 1004 624 L 1004 627 L 1006 629 L 1009 630 L 1012 628 L 1012 623 L 1010 621 Z"/>
    <path id="spray-dot-022" d="M 1027 715 L 1024 718 L 1024 721 L 1026 723 L 1029 724 L 1032 722 L 1032 717 L 1029 715 Z"/>
    <path id="spray-dot-023" d="M 1007 644 L 1004 647 L 1004 650 L 1006 652 L 1011 652 L 1012 651 L 1012 649 L 1013 648 L 1012 647 L 1012 646 L 1010 644 Z"/>
    <path id="spray-dot-024" d="M 1027 583 L 1025 585 L 1025 589 L 1027 591 L 1031 591 L 1033 589 L 1033 585 L 1031 583 Z"/>
    <path id="spray-dot-025" d="M 1005 686 L 1004 687 L 1004 692 L 1006 694 L 1009 694 L 1010 693 L 1011 693 L 1011 692 L 1012 691 L 1012 688 L 1010 686 Z"/>
    <path id="spray-dot-026" d="M 1029 638 L 1026 639 L 1024 642 L 1025 645 L 1027 647 L 1029 647 L 1030 646 L 1031 646 L 1033 643 L 1032 642 L 1032 640 Z"/>
    <path id="spray-dot-027" d="M 1026 689 L 1024 692 L 1024 694 L 1025 695 L 1025 696 L 1026 696 L 1027 697 L 1030 697 L 1032 695 L 1032 690 L 1031 689 Z"/>
    <path id="spray-dot-028" d="M 1026 664 L 1024 667 L 1024 669 L 1025 670 L 1025 671 L 1026 671 L 1027 672 L 1030 672 L 1032 670 L 1032 665 L 1031 664 Z"/>
    <path id="spray-dot-029" d="M 1026 744 L 1024 747 L 1024 749 L 1026 752 L 1030 752 L 1032 750 L 1032 746 L 1030 744 Z"/>
    <path id="spray-dot-030" d="M 955 631 L 952 632 L 950 635 L 951 638 L 954 640 L 955 639 L 957 639 L 959 636 L 958 633 Z"/>
    <path id="spray-dot-031" d="M 1027 612 L 1025 614 L 1025 618 L 1027 620 L 1030 620 L 1031 619 L 1032 619 L 1032 618 L 1033 617 L 1033 614 L 1031 612 Z"/>
    <path id="spray-dot-032" d="M 1047 603 L 1046 604 L 1046 608 L 1048 610 L 1052 610 L 1054 608 L 1054 604 L 1051 602 L 1049 602 L 1048 603 Z"/>
    <path id="spray-dot-033" d="M 1069 594 L 1067 597 L 1068 600 L 1069 601 L 1074 601 L 1076 598 L 1075 595 L 1073 593 L 1071 593 L 1070 594 Z"/>
    <path id="spray-dot-034" d="M 1048 570 L 1046 572 L 1046 576 L 1048 578 L 1051 578 L 1052 577 L 1053 577 L 1053 576 L 1054 575 L 1054 572 L 1052 570 Z"/>
    <path id="spray-dot-035" d="M 1069 766 L 1067 769 L 1067 771 L 1068 772 L 1068 773 L 1069 773 L 1070 774 L 1073 774 L 1075 772 L 1075 768 L 1074 767 L 1074 766 Z"/>
    <path id="spray-dot-036" d="M 963 656 L 961 658 L 961 662 L 963 664 L 966 664 L 969 661 L 969 658 L 967 656 Z"/>
    <path id="spray-dot-037" d="M 1048 633 L 1046 635 L 1046 639 L 1048 641 L 1052 641 L 1054 638 L 1054 636 L 1053 635 L 1053 634 L 1052 634 L 1051 633 Z"/>
    <path id="spray-dot-038" d="M 953 679 L 950 682 L 950 685 L 952 687 L 956 687 L 958 685 L 958 681 L 955 679 Z"/>
    <path id="spray-dot-039" d="M 1070 729 L 1067 732 L 1067 734 L 1069 737 L 1074 737 L 1074 736 L 1075 735 L 1075 731 L 1072 729 Z"/>
    <path id="spray-dot-040" d="M 1048 691 L 1046 693 L 1046 698 L 1047 699 L 1052 699 L 1053 698 L 1053 696 L 1054 695 L 1053 694 L 1053 693 L 1051 691 Z"/>
    <path id="spray-dot-041" d="M 1048 722 L 1046 724 L 1046 728 L 1048 730 L 1052 730 L 1053 729 L 1054 726 L 1053 725 L 1053 724 L 1051 722 Z"/>
    <path id="spray-dot-042" d="M 1069 695 L 1067 698 L 1068 701 L 1071 703 L 1074 702 L 1075 701 L 1075 696 L 1074 695 Z"/>
    <path id="spray-dot-043" d="M 1068 558 L 1068 559 L 1067 560 L 1068 563 L 1070 565 L 1073 565 L 1075 563 L 1075 559 L 1073 557 L 1070 557 L 1069 558 Z"/>
    <path id="spray-dot-044" d="M 1047 663 L 1046 664 L 1046 668 L 1048 670 L 1052 670 L 1054 667 L 1053 664 L 1050 662 Z"/>
    <path id="spray-dot-045" d="M 979 652 L 977 655 L 977 657 L 979 659 L 983 659 L 985 657 L 985 653 L 984 652 Z"/>
    <path id="spray-dot-046" d="M 1070 661 L 1068 663 L 1068 667 L 1070 669 L 1073 669 L 1075 667 L 1075 663 L 1073 661 Z"/>
    <path id="spray-dot-047" d="M 1093 777 L 1090 779 L 1090 783 L 1092 785 L 1095 785 L 1097 783 L 1097 779 L 1095 777 Z"/>
    <path id="spray-dot-048" d="M 1069 628 L 1068 629 L 1068 634 L 1069 635 L 1074 635 L 1075 634 L 1075 629 L 1074 628 Z"/>
    <path id="spray-dot-049" d="M 1094 736 L 1093 737 L 1092 737 L 1090 740 L 1090 741 L 1092 744 L 1096 744 L 1098 741 L 1098 739 L 1096 737 L 1095 737 Z"/>
    <path id="spray-dot-050" d="M 1092 698 L 1090 701 L 1091 704 L 1092 705 L 1096 705 L 1098 703 L 1098 700 L 1096 698 Z"/>
    <path id="spray-dot-051" d="M 1092 660 L 1090 663 L 1091 666 L 1092 667 L 1096 667 L 1098 665 L 1098 662 L 1096 660 Z"/>
    <path id="spray-dot-052" d="M 1092 584 L 1090 587 L 1091 590 L 1092 591 L 1096 591 L 1098 589 L 1098 586 L 1096 584 Z"/>
    <path id="spray-dot-053" d="M 1091 545 L 1090 548 L 1092 551 L 1096 551 L 1098 549 L 1098 546 L 1096 544 L 1093 544 L 1092 545 Z"/>
    <path id="spray-dot-054" d="M 1095 622 L 1093 622 L 1091 624 L 1091 625 L 1090 626 L 1091 627 L 1091 628 L 1094 630 L 1095 629 L 1096 629 L 1098 627 L 1098 625 L 1097 624 L 1097 623 L 1096 623 Z"/>
    <path id="spray-dot-055" d="M 993 667 L 991 669 L 991 672 L 993 674 L 996 674 L 998 672 L 998 669 L 996 667 Z"/>
    <path id="spray-dot-056" d="M 952 659 L 950 661 L 950 663 L 952 665 L 956 665 L 958 662 L 957 661 L 957 660 L 956 659 Z"/>
    <path id="spray-dot-057" d="M 1117 790 L 1115 792 L 1115 795 L 1116 796 L 1119 797 L 1122 794 L 1122 793 L 1120 790 Z"/>
    <path id="spray-dot-058" d="M 1117 659 L 1115 661 L 1115 664 L 1116 665 L 1120 665 L 1122 663 L 1122 662 L 1120 659 Z"/>
    <path id="spray-dot-059" d="M 1120 530 L 1118 530 L 1117 531 L 1116 531 L 1116 532 L 1115 533 L 1115 534 L 1118 537 L 1121 536 L 1121 535 L 1122 534 L 1122 532 Z"/>
    <path id="spray-dot-060" d="M 1116 702 L 1116 703 L 1115 704 L 1115 706 L 1117 708 L 1120 708 L 1121 707 L 1122 704 L 1120 702 Z"/>
    <path id="spray-dot-061" d="M 1117 745 L 1115 747 L 1115 749 L 1116 750 L 1116 751 L 1120 751 L 1122 748 L 1120 745 Z"/>
    <path id="spray-dot-062" d="M 1117 617 L 1115 619 L 1115 621 L 1117 623 L 1120 623 L 1122 620 L 1120 617 Z"/>
    <path id="spray-dot-063" d="M 1121 575 L 1120 575 L 1119 574 L 1116 575 L 1116 576 L 1115 577 L 1116 580 L 1120 580 L 1122 578 Z"/>
    <path id="spray-dot-064" d="M 996 649 L 993 650 L 993 654 L 994 655 L 996 655 L 998 653 L 998 651 Z"/>
    <path id="spray-dot-065" d="M 995 686 L 992 686 L 992 687 L 991 688 L 991 689 L 993 691 L 994 690 L 995 690 L 995 689 L 996 688 L 995 687 Z"/>
    <path id="spray-dot-066" d="M 961 645 L 960 646 L 960 648 L 961 649 L 963 649 L 964 648 L 964 646 L 963 645 Z"/>
    <path id="spray-dot-067" d="M 981 702 L 980 701 L 979 701 L 978 702 L 978 703 L 980 703 Z"/>
  </g>
</svg>