<?xml version="1.0" encoding="UTF-8"?>
<svg xmlns="http://www.w3.org/2000/svg" viewBox="0 0 1600 600" preserveAspectRatio="xMidYMid meet" aria-label="brush-broad-01.svg">
<defs>
<mask id="bb01-mask-01" maskUnits="userSpaceOnUse" x="0" y="0" width="1600" height="600"><rect width="1600" height="600" fill="white"/><path d="M 600.94 281.49 Q 596.56 284.6 592.31 287.65 Q 588.05 290.71 564.18 291.92 Q 540.31 293.13 512.61 292.43 Q 484.91 291.74 460.52 286.76 Q 436.12 281.78 432.22 278.14 Q 428.32 274.49 444.67 272.24 Q 461.03 269.98 479.29 267.09 Q 497.54 264.19 525.62 266.17 Q 553.71 268.15 579.51 273.27 Q 605.31 278.39 600.94 281.49 Z" fill="black"/><path d="M 924.48 325.58 Q 930.3 329.99 920.54 334.26 Q 910.77 338.53 893.03 340.62 Q 875.29 342.71 852.78 343.94 Q 830.26 345.17 797.71 345.62 Q 765.16 346.07 747.17 343.78 Q 729.17 341.5 730.67 337.73 Q 732.18 333.96 741.87 330.43 Q 751.55 326.91 769.3 324.02 Q 787.05 321.14 808.35 317.8 Q 829.65 314.47 857.53 317.24 Q 885.42 320.01 902.04 320.59 Q 918.66 321.18 924.48 325.58 Z" fill="black"/><path d="M 1136.92 258.58 Q 1149.08 262.07 1145.12 264.53 Q 1141.16 266.98 1118.61 268.28 Q 1096.06 269.58 1078.28 269.77 Q 1060.5 269.96 1039.16 267.09 Q 1017.82 264.22 1012.91 261.03 Q 1008 257.84 1020.8 255.34 Q 1033.61 252.85 1047.98 250.73 Q 1062.36 248.6 1079.76 249.27 Q 1097.17 249.94 1110.96 252.51 Q 1124.75 255.08 1136.92 258.58 Z" fill="black"/></mask>
</defs>
<g id="bb01-root">
<g id="bb01-core" data-part="core">
<path d="M 128 291.69 Q 123.3 223.8 158.81 216.36 Q 194.32 208.93 232.21 197.82 Q 270.1 186.7 305.9 180.53 Q 341.71 174.36 373.18 170.4 Q 404.65 166.44 446.08 169.22 Q 487.5 172 518.73 164.76 Q 549.95 157.52 581.52 163 Q 613.1 168.49 651.08 165.02 Q 689.06 161.55 721.4 156.29 Q 753.74 151.04 794.67 153.35 Q 835.61 155.65 870.35 162.48 Q 905.1 169.3 933.77 168.39 Q 962.45 167.48 1005.46 174.2 Q 1048.46 180.92 1078.74 179.13 Q 1109.03 177.34 1139.78 178.26 Q 1170.54 179.18 1210.23 187.61 Q 1249.92 196.05 1282.18 202.34 Q 1314.44 208.63 1349.03 210.24 Q 1383.61 211.86 1420.27 224.87 Q 1456.93 237.89 1456.53 282.95 Q 1456.13 328.01 1421.55 349.81 Q 1386.96 371.6 1354.05 378.95 Q 1321.13 386.3 1286.07 396.59 Q 1251.01 406.88 1217.69 417.17 Q 1184.36 427.47 1152.13 428.08 Q 1119.9 428.7 1079.04 433.97 Q 1038.19 439.25 1007.37 441.86 Q 976.54 444.48 939.08 452.77 Q 901.62 461.07 870.5 464.44 Q 839.38 467.82 803.35 461.68 Q 767.32 455.55 727.09 457.25 Q 686.86 458.94 649.68 461.34 Q 612.5 463.73 585.77 454.91 Q 559.04 446.08 514.86 441.31 Q 470.68 436.54 445.32 435.18 Q 419.95 433.82 382.91 422.26 Q 345.88 410.69 302.97 404.54 Q 260.06 398.38 233.11 391.05 Q 206.16 383.72 169.43 371.65 Q 132.7 359.58 128 291.69 Z" fill="currentColor" mask="url(#bb01-mask-01)"/>
</g>
<g id="bb01-bristles" data-part="bristles">
<path d="M 1319.33 218.32 Q 1445.79 212.03 1571.01 193.24 Q 1570 192 1570.8 191.26 Q 1445.35 205.93 1320.47 201.64 Q 1320 210 1319.33 218.32 Z" fill="currentColor" opacity="0.95"/>
<path d="M 1330.57 239.89 Q 1472.96 238.65 1616.7 224.03 Q 1615 222 1614.86 222.09 Q 1472.77 234.33 1328.7 228 Q 1330 235 1330.57 239.89 Z" fill="currentColor" opacity="0.91"/>
<path d="M 1338.86 265.42 Q 1500.24 265.8 1658.82 253.26 Q 1660 252 1660.38 251.08 Q 1500.15 262.2 1340.3 255.24 Q 1340 260 1338.86 265.42 Z" fill="currentColor" opacity="0.87"/>
<path d="M 1351.77 293.84 Q 1492.6 297.94 1635.79 288.35 Q 1635 287 1633.97 284.98 Q 1492.57 295.06 1350.33 284.64 Q 1350 290 1351.77 293.84 Z" fill="currentColor" opacity="0.83"/>
<path d="M 1361.6 332.84 Q 1479.91 336.34 1600.83 326.52 Q 1600 327 1599.39 327.27 Q 1479.95 331.66 1361.16 316.76 Q 1360 325 1361.6 332.84 Z" fill="currentColor" opacity="0.79"/>
<path d="M 1371.21 358.95 Q 1472.17 368.11 1576.03 364.13 Q 1575 362 1574.34 362.47 Q 1472.28 364.88 1369.56 349.29 Q 1370 355 1371.21 358.95 Z" fill="currentColor" opacity="0.75"/>
<path d="M 1380.5 394.93 Q 1459.31 405.23 1538.22 404.09 Q 1540 402 1541.19 399.91 Q 1459.5 402.72 1381.36 387.61 Q 1380 390 1380.5 394.93 Z" fill="currentColor" opacity="0.71"/>
<path d="M 1388.72 422.77 Q 1446.2 437.3 1506.63 438.06 Q 1505 437 1505.01 435.82 Q 1446.46 435.52 1389.06 419.32 Q 1390 420 1388.72 422.77 Z" fill="currentColor" opacity="0.67"/>
<path d="M 180.95 379.92 Q 299.67 387.75 418.85 389.79 Q 420 390 419.95 388.29 Q 299.83 385.23 178.75 372.39 Q 180 375 180.95 379.92 Z" fill="currentColor" opacity=".86"/>
<path d="M 215.57 383.39 Q 344.72 391.13 476.6 393.98 Q 475 393 473.96 394.2 Q 344.85 388.86 216.67 376.12 Q 215 379 215.57 383.39 Z" fill="currentColor" opacity=".86"/>
<path d="M 251.59 385.41 Q 389.77 394.5 528.7 398.2 Q 530 396 531.1 395.95 Q 389.86 392.49 251.58 380.66 Q 250 383 251.59 385.41 Z" fill="currentColor" opacity=".86"/>
<path d="M 286.68 387.92 Q 434.8 397.88 584.12 400.77 Q 585 399 586.44 398.74 Q 434.88 396.12 285.45 385.77 Q 285 387 286.68 387.92 Z" fill="currentColor" opacity=".86"/>
<path d="M 318.86 394.62 Q 479.84 401.25 639.53 403.69 Q 640 402 639.81 399.72 Q 479.89 399.74 319.9 389.93 Q 320 391 318.86 394.62 Z" fill="currentColor" opacity=".86"/>
</g>
<g id="bb01-fragments" data-part="fragments">
<path d="M 119.42 249.13 Q 119.19 251.72 121.21 254.61 Q 123.23 257.49 114.87 258.37 Q 106.5 259.25 99.68 258.39 Q 92.85 257.54 88.25 254.17 Q 83.65 250.8 83.07 247.74 Q 82.49 244.67 87.83 241.81 Q 93.17 238.95 99.99 239.29 Q 106.81 239.64 113.23 243.09 Q 119.64 246.54 119.42 249.13 Z" fill="currentColor" opacity="0.92"/>
<path d="M 131.53 329.16 Q 129.94 331.2 128.03 333.32 Q 126.12 335.45 123.35 337.18 Q 120.58 338.91 114.76 337.9 Q 108.94 336.89 105.63 334.27 Q 102.31 331.65 101.73 328.84 Q 101.14 326.03 105.49 324.16 Q 109.84 322.3 115.77 322.91 Q 121.69 323.53 127.4 325.32 Q 133.12 327.11 131.53 329.16 Z" fill="currentColor" opacity="0.88"/>
<path d="M 1502.39 259.85 Q 1508.17 262.83 1502.42 264.74 Q 1496.67 266.65 1490.12 268.95 Q 1483.56 271.26 1475.65 269.58 Q 1467.74 267.91 1466.03 264.74 Q 1464.33 261.56 1463.37 258.36 Q 1462.42 255.15 1465.24 252.4 Q 1468.07 249.64 1476.66 249.85 Q 1485.25 250.06 1490.93 253.47 Q 1496.61 256.88 1502.39 259.85 Z" fill="currentColor" opacity="0.8400000000000001"/>
<path d="M 1514.99 304.28 Q 1515.05 306.01 1515.56 307.73 Q 1516.07 309.46 1511.67 310.44 Q 1507.26 311.43 1501.6 310.51 Q 1495.93 309.59 1492.81 307.69 Q 1489.69 305.8 1491.58 303.99 Q 1493.46 302.18 1495.02 301.03 Q 1496.58 299.88 1502.41 298.94 Q 1508.24 298 1511.58 300.28 Q 1514.93 302.56 1514.99 304.28 Z" fill="currentColor" opacity="0.8"/>
<path d="M 1452.01 389.08 Q 1454.65 391.67 1453.37 393.67 Q 1452.08 395.68 1446.21 396.6 Q 1440.35 397.52 1433.81 396.14 Q 1427.27 394.75 1421.44 392.35 Q 1415.6 389.94 1421.01 387.9 Q 1426.41 385.86 1426.66 383.29 Q 1426.91 380.73 1434.68 382.28 Q 1442.45 383.84 1445.91 385.16 Q 1449.37 386.48 1452.01 389.08 Z" fill="currentColor" opacity="0.76"/>
<path d="M 350.62 420.34 Q 349.96 422 347.96 424.06 Q 345.95 426.12 339.9 426.26 Q 333.84 426.41 324.7 425.55 Q 315.56 424.7 315.51 422.96 Q 315.46 421.22 314.87 418.35 Q 314.28 415.48 316.53 414.56 Q 318.77 413.64 327.08 413.92 Q 335.4 414.2 343.34 416.44 Q 351.28 418.68 350.62 420.34 Z" fill="currentColor" opacity="0.7"/>
<path d="M 1271.99 179.09 Q 1271.26 181.13 1272.93 183.55 Q 1274.59 185.97 1268.8 186.77 Q 1263.01 187.57 1257.95 185.74 Q 1252.9 183.91 1248.24 182.24 Q 1243.59 180.56 1245.62 178.51 Q 1247.65 176.46 1250.53 175.07 Q 1253.4 173.67 1258.58 174.33 Q 1263.76 174.99 1268.24 176.02 Q 1272.71 177.06 1271.99 179.09 Z" fill="currentColor" opacity="0.7"/>
</g>
<g id="bb01-overspray" data-part="overspray">
<ellipse cx="1401.9" cy="215.85" rx="5.99" ry="4.28" fill="currentColor" opacity="0.5"/>
<ellipse cx="1421.5" cy="215.86" rx="4.8" ry="3.43" fill="currentColor" opacity="0.53"/>
<ellipse cx="1422.85" cy="360.35" rx="7.99" ry="5.71" fill="currentColor" opacity="0.3"/>
<ellipse cx="1483.03" cy="292.98" rx="6.14" ry="4.39" fill="currentColor" opacity="0.62"/>
<ellipse cx="1414.43" cy="194.68" rx="10.05" ry="7.18" fill="currentColor" opacity="0.4"/>
<ellipse cx="1430.77" cy="265.97" rx="5.79" ry="4.13" fill="currentColor" opacity="0.6"/>
<ellipse cx="1432.6" cy="239.89" rx="7.42" ry="5.3" fill="currentColor" opacity="0.45"/>
<ellipse cx="1547.83" cy="382.9" rx="5.72" ry="4.08" fill="currentColor" opacity="0.33"/>
<ellipse cx="1529.64" cy="417.46" rx="3.31" ry="2.36" fill="currentColor" opacity="0.52"/>
<ellipse cx="1534.6" cy="339.76" rx="4.7" ry="3.36" fill="currentColor" opacity="0.54"/>
<ellipse cx="1513.12" cy="234.58" rx="7.84" ry="5.6" fill="currentColor" opacity="0.33"/>
<ellipse cx="1406.42" cy="267.28" rx="5.56" ry="3.97" fill="currentColor" opacity="0.4"/>
<ellipse cx="1500.25" cy="382.32" rx="10.21" ry="7.3" fill="currentColor" opacity="0.61"/>
<ellipse cx="1553.99" cy="371.66" rx="5.35" ry="3.82" fill="currentColor" opacity="0.32"/>
<ellipse cx="1496.68" cy="315.54" rx="8.08" ry="5.77" fill="currentColor" opacity="0.28"/>
<ellipse cx="1429.88" cy="401.83" rx="7.54" ry="5.39" fill="currentColor" opacity="0.51"/>
</g>
</g>
</svg>
